<svg xmlns="http://www.w3.org/2000/svg" viewBox="0 0 19.806 22">
  <defs>
    <style>
      .cls-1 {
        fill: #f12139;
      }
    </style>
  </defs>
  <g id="fingerprint" transform="translate(-21.277)">
    <g id="Group_124" data-name="Group 124" transform="translate(21.277)">
      <g id="Group_123" data-name="Group 123" transform="translate(0)">
        <path id="Path_90" data-name="Path 90" class="cls-1" d="M94.58,165.156a8.713,8.713,0,0,1-1.017-4.24,5.141,5.141,0,0,1,10.263,0,.55.55,0,0,0,1.1,0,6.239,6.239,0,0,0-12.463,0,9.788,9.788,0,0,0,1.161,4.779,11.526,11.526,0,0,0,2.211,2.9.546.546,0,0,0,.39.165.493.493,0,0,0,.38-.165.543.543,0,0,0,.006-.776A10.425,10.425,0,0,1,94.58,165.156Z" transform="translate(-88.792 -146.995)"/>
        <path id="Path_91" data-name="Path 91" class="cls-1" d="M79.718,2.651a12.857,12.857,0,0,1,12.254.006.589.589,0,0,0,.253.06h0a.55.55,0,0,0,.253-1.039,13.976,13.976,0,0,0-13.288.006.551.551,0,1,0,.528.968Z" transform="translate(-75.932 0)"/>
        <path id="Path_92" data-name="Path 92" class="cls-1" d="M46.757,103.04a9.136,9.136,0,0,0-8.261,5.055,8.144,8.144,0,0,0-.753,3.558,12.248,12.248,0,0,0,.8,4.35.552.552,0,0,0,1.034-.385,10.974,10.974,0,0,1-.732-3.965,7.066,7.066,0,0,1,.643-3.085,8.024,8.024,0,0,1,7.271-4.433,7.762,7.762,0,0,1,7.969,7.518,2.293,2.293,0,0,1-4.576,0,3.391,3.391,0,0,0-6.776,0,8.053,8.053,0,0,0,2.382,5.742,8.4,8.4,0,0,0,4.086,2.31.41.41,0,0,0,.143.022.549.549,0,0,0,.143-1.078,7.421,7.421,0,0,1-3.6-2.03,6.959,6.959,0,0,1-2.057-4.961,2.293,2.293,0,0,1,4.576,0,3.391,3.391,0,0,0,6.776,0A8.864,8.864,0,0,0,46.757,103.04Z" transform="translate(-36.894 -97.727)"/>
        <path id="Path_93" data-name="Path 93" class="cls-1" d="M40.98,56.922a11.507,11.507,0,0,0-4.125-3.575,12.692,12.692,0,0,0-11.346.011,11.456,11.456,0,0,0-4.131,3.6.548.548,0,0,0,.132.765.573.573,0,0,0,.319.1.56.56,0,0,0,.451-.225,10.329,10.329,0,0,1,3.735-3.261,11.573,11.573,0,0,1,10.34-.011,10.327,10.327,0,0,1,3.729,3.234.553.553,0,0,0,.77.126A.547.547,0,0,0,40.98,56.922Z" transform="translate(-21.277 -49.332)"/>
        <path id="Path_94" data-name="Path 94" class="cls-1" d="M208.647,264.561a7.223,7.223,0,0,1-1.15.1,4.759,4.759,0,0,1-4.923-4.7.55.55,0,0,0-1.1,0,5.865,5.865,0,0,0,2.613,4.829,5.975,5.975,0,0,0,3.41.974,7.875,7.875,0,0,0,1.342-.121.55.55,0,1,0-.192-1.083Z" transform="translate(-192.184 -246.037)"/>
      </g>
    </g>
  </g>
</svg>
