<svg xmlns="http://www.w3.org/2000/svg" viewBox="0 0 40 40">
  <defs>
    <style>
      .cls-1 {
        fill: #212121;
      }
    </style>
  </defs>
  <g id="graduation-cap" transform="translate(0 -0.002)">
    <g id="Group_42" data-name="Group 42" transform="translate(19.167 22.503)">
      <g id="Group_41" data-name="Group 41">
        <rect id="Rectangle_29" data-name="Rectangle 29" class="cls-1" width="1.667" height="6.666"/>
      </g>
    </g>
    <g id="Group_45" data-name="Group 45" transform="translate(0 0.002)">
      <g id="Group_44" data-name="Group 44" transform="translate(0 0)">
        <g id="Group_43" data-name="Group 43">
          <path id="Path_24" data-name="Path 24" class="cls-1" d="M39.576,10.943,20.41.11a.833.833,0,0,0-.82,0L.424,10.943a.833.833,0,0,0,0,1.452L19.59,23.227a.83.83,0,0,0,.82,0L39.576,12.394a.833.833,0,0,0,0-1.452ZM20,21.546,2.527,11.669,20,1.793l17.473,9.876Z" transform="translate(0 -0.002)"/>
          <path id="Path_25" data-name="Path 25" class="cls-1" d="M256.009,298.684Z" transform="translate(-236.009 -275.35)"/>
        </g>
      </g>
    </g>
    <g id="Group_47" data-name="Group 47" transform="translate(5.834 15.003)">
      <g id="Group_46" data-name="Group 46">
        <path id="Path_26" data-name="Path 26" class="cls-1" d="M101.342,192.017V208.2l-12.536,7.052L76.343,208.2v-16.18H74.676v16.666a.833.833,0,0,0,.423.725l13.257,7.5a1.144,1.144,0,0,0,.486.108.824.824,0,0,0,.408-.108l13.333-7.5a.833.833,0,0,0,.425-.726V192.017Z" transform="translate(-74.676 -192.017)"/>
      </g>
    </g>
    <g id="Group_49" data-name="Group 49" transform="translate(19.167 30.836)">
      <g id="Group_48" data-name="Group 48">
        <rect id="Rectangle_30" data-name="Rectangle 30" class="cls-1" width="1.667" height="1.667"/>
      </g>
    </g>
    <g id="Group_51" data-name="Group 51" transform="translate(16.667 8.336)">
      <g id="Group_50" data-name="Group 50">
        <path id="Path_27" data-name="Path 27" class="cls-1" d="M216.676,106.684a3.333,3.333,0,0,0-3.333,3.333h1.667a1.667,1.667,0,0,1,3.333,0h1.667A3.333,3.333,0,0,0,216.676,106.684Z" transform="translate(-213.343 -106.684)"/>
      </g>
    </g>
    <g id="Group_53" data-name="Group 53" transform="translate(35.833 11.669)">
      <g id="Group_52" data-name="Group 52">
        <path id="Path_28" data-name="Path 28" class="cls-1" d="M461.176,149.35v8.333h-1.667a.833.833,0,0,0-.833.833v6.666a.833.833,0,0,0,.833.833h2.5a.833.833,0,0,0,.833-.833V149.35Zm0,15h-.833v-5h.833v5Z" transform="translate(-458.676 -149.35)"/>
      </g>
    </g>
  </g>
</svg>
