<svg xmlns="http://www.w3.org/2000/svg" viewBox="0 0 30.398 33.765">
  <defs>
    <style>
      .cls-1 {
        fill: #212121;
      }
    </style>
  </defs>
  <g id="Group_246" data-name="Group 246" transform="translate(0 0)">
    <g id="fingerprint" transform="translate(0)">
      <g id="Group_124" data-name="Group 124" transform="translate(0)">
        <g id="Group_123" data-name="Group 123">
          <path id="Path_90" data-name="Path 90" class="cls-1" d="M95.712,170.594a13.372,13.372,0,0,1-1.562-6.508,7.89,7.89,0,0,1,15.752,0,.844.844,0,0,0,1.688,0,9.576,9.576,0,0,0-19.128,0,15.023,15.023,0,0,0,1.781,7.335,17.69,17.69,0,0,0,3.393,4.449.838.838,0,0,0,.6.253.757.757,0,0,0,.582-.253.833.833,0,0,0,.008-1.19A16,16,0,0,1,95.712,170.594Z" transform="translate(-86.829 -142.721)"/>
          <path id="Path_91" data-name="Path 91" class="cls-1" d="M80.153,4.069a19.733,19.733,0,0,1,18.807.008.9.9,0,0,0,.388.093h0a.845.845,0,0,0,.388-1.6,21.45,21.45,0,0,0-20.394.008.846.846,0,1,0,.81,1.486Z" transform="translate(-74.343 0)"/>
          <path id="Path_92" data-name="Path 92" class="cls-1" d="M51.578,103.04A14.022,14.022,0,0,0,38.9,110.8a12.5,12.5,0,0,0-1.156,5.462,18.8,18.8,0,0,0,1.232,6.677.847.847,0,1,0,1.587-.591,16.843,16.843,0,0,1-1.123-6.086,10.845,10.845,0,0,1,.988-4.736,12.316,12.316,0,0,1,11.159-6.8c6.745,0,12.232,5.175,12.232,11.539a3.519,3.519,0,0,1-7.023,0,5.205,5.205,0,0,0-10.4,0,12.36,12.36,0,0,0,3.655,8.813,12.894,12.894,0,0,0,6.272,3.545.63.63,0,0,0,.219.034A.842.842,0,0,0,56.761,127a11.389,11.389,0,0,1-5.529-3.115,10.681,10.681,0,0,1-3.157-7.614,3.519,3.519,0,0,1,7.023,0,5.205,5.205,0,0,0,10.4,0C65.5,108.974,59.252,103.04,51.578,103.04Z" transform="translate(-36.44 -94.886)"/>
          <path id="Path_93" data-name="Path 93" class="cls-1" d="M51.517,59.546a17.662,17.662,0,0,0-6.331-5.487,19.479,19.479,0,0,0-17.414.017,17.583,17.583,0,0,0-6.339,5.529.841.841,0,0,0,.2,1.173.88.88,0,0,0,.49.152.859.859,0,0,0,.692-.346,15.853,15.853,0,0,1,5.732-5.006,17.763,17.763,0,0,1,15.87-.017,15.849,15.849,0,0,1,5.723,4.964.849.849,0,0,0,1.182.194A.839.839,0,0,0,51.517,59.546Z" transform="translate(-21.277 -47.897)"/>
          <path id="Path_94" data-name="Path 94" class="cls-1" d="M212.483,267.314a11.089,11.089,0,0,1-1.764.16,7.3,7.3,0,0,1-7.555-7.217.844.844,0,0,0-1.688,0,9,9,0,0,0,4.01,7.412,9.17,9.17,0,0,0,5.234,1.494,12.088,12.088,0,0,0,2.06-.186.844.844,0,1,0-.3-1.663Z" transform="translate(-187.215 -238.884)"/>
        </g>
      </g>
    </g>
  </g>
</svg>
