<svg xmlns="http://www.w3.org/2000/svg" viewBox="0 0 18.089 22">
  <g id="keyhole" transform="translate(-45.51)">
    <g id="Group_184" data-name="Group 184" transform="translate(45.51 0)">
      <g id="Group_183" data-name="Group 183" transform="translate(0 0)">
        <path id="Path_111" data-name="Path 111" d="M63.141,2.69A19.55,19.55,0,0,1,54.794.063a.489.489,0,0,0-.479,0A19.549,19.549,0,0,1,45.968,2.69a.489.489,0,0,0-.458.488v9.289a7.462,7.462,0,0,0,1.426,4.347A12.058,12.058,0,0,0,50,19.75,18.723,18.723,0,0,0,54.4,21.976a.489.489,0,0,0,.3,0A18.726,18.726,0,0,0,59.11,19.75a12.056,12.056,0,0,0,3.064-2.936A7.461,7.461,0,0,0,63.6,12.467V3.178A.489.489,0,0,0,63.141,2.69Zm-.519,9.777c0,2.432-1.362,4.607-4.048,6.465a18.3,18.3,0,0,1-4.019,2.062,18.246,18.246,0,0,1-4-2.049c-2.7-1.861-4.066-4.04-4.066-6.478V3.631a20.611,20.611,0,0,0,8.067-2.583,20.613,20.613,0,0,0,8.067,2.583v8.836Z" transform="translate(-45.51 0)"/>
        <path id="Path_112" data-name="Path 112" d="M192.492,150.4c-.069-.415-.14-.842-.2-1.264a2.933,2.933,0,1,0-3.247,0c-.063.423-.134.849-.2,1.264-.142.85-.288,1.728-.371,2.6a.489.489,0,0,0,.487.535h3.422a.489.489,0,0,0,.487-.535C192.78,152.133,192.634,151.254,192.492,150.4Zm-1.219-1.454c.075.54.166,1.087.254,1.615.109.657.222,1.331.3,2H189.5c.082-.667.194-1.341.3-2,.088-.528.179-1.074.254-1.615a.489.489,0,0,0-.265-.5,1.956,1.956,0,1,1,1.747,0A.489.489,0,0,0,191.273,148.95Z" transform="translate(-181.621 -137.586)"/>
      </g>
    </g>
  </g>
</svg>
