<svg xmlns="http://www.w3.org/2000/svg" viewBox="0 0 21.834 18.5">
  <defs>
    <style>
      .cls-1 {
        stroke: #fff;
        stroke-width: 0.5px;
      }
    </style>
  </defs>
  <g id="logout" transform="translate(0.249 -24.75)">
    <path id="XMLID_7_" class="cls-1" d="M3.415,105H15a1,1,0,1,0,0-2H3.415l1.293-1.293a1,1,0,1,0-1.414-1.414l-3,3a.989.989,0,0,0-.066.074c-.009.011-.017.023-.026.034s-.022.029-.033.044-.017.028-.026.043-.017.027-.024.041-.014.03-.022.045-.014.029-.02.044-.011.029-.016.044-.012.032-.017.048-.008.03-.011.045-.009.033-.012.05-.005.035-.008.052,0,.03-.006.045c0,.032,0,.065,0,.1H0q0,.049,0,.1c0,.015,0,.029.006.044s0,.035.008.053.008.033.012.05.007.03.012.045.011.032.017.047.01.03.016.045.013.029.02.043.014.031.022.046.016.027.024.04.017.03.027.044.021.028.031.042.017.025.027.036.041.048.063.07l0,0,3,3a1,1,0,0,0,1.414-1.414Z" transform="translate(0 -70)"/>
    <path id="XMLID_8_" class="cls-1" d="M113.669,25H101a1,1,0,0,0-1,1v4a1,1,0,1,0,2,0V27h10.667V41H102V38a1,1,0,1,0-2,0v4a1,1,0,0,0,1,1h12.667a1,1,0,0,0,1-1V26A1,1,0,0,0,113.669,25Z" transform="translate(-93.334)"/>
  </g>
</svg>
