<svg xmlns="http://www.w3.org/2000/svg" viewBox="0 0 42 30">
  <defs>
    <style>
      .cls-1 {
        fill: #212121;
      }
    </style>
  </defs>
  <g id="mail" transform="translate(0 -4.482)">
    <g id="Group_113" data-name="Group 113" transform="translate(7.315 18.946)">
      <path id="Path_74" data-name="Path 74" class="cls-1" d="M27.325,23.818a.669.669,0,0,1-.463-.185l-7.793-7.345a.682.682,0,0,1-.03-.961A.672.672,0,0,1,20,15.3l7.793,7.345a.682.682,0,0,1,.03.961A.674.674,0,0,1,27.325,23.818Z" transform="translate(-0.635 -15.111)"/>
      <path id="Path_75" data-name="Path 75" class="cls-1" d="M6.079,23.818a.68.68,0,0,1-.465-1.176l7.8-7.345a.679.679,0,0,1,.928.991l-7.8,7.345A.669.669,0,0,1,6.079,23.818Z" transform="translate(-5.402 -15.111)"/>
    </g>
    <path id="Path_76" data-name="Path 76" class="cls-1" d="M38.614,34.482H3.386A3.4,3.4,0,0,1,0,31.08V7.884a3.4,3.4,0,0,1,3.386-3.4H38.614A3.4,3.4,0,0,1,42,7.884v23.2A3.4,3.4,0,0,1,38.614,34.482ZM3.386,5.843A2.039,2.039,0,0,0,1.354,7.884v23.2a2.039,2.039,0,0,0,2.031,2.041H38.614a2.039,2.039,0,0,0,2.031-2.041V7.884a2.039,2.039,0,0,0-2.031-2.041Z"/>
    <path id="Path_77" data-name="Path 77" class="cls-1" d="M20.767,22.613a3.776,3.776,0,0,1-2.487-.9L.891,6.471a.679.679,0,1,1,.89-1.026L19.17,20.685a2.525,2.525,0,0,0,3.192,0L39.73,5.47a.676.676,0,0,1,.956.065.684.684,0,0,1-.065.961L23.253,21.711A3.773,3.773,0,0,1,20.767,22.613Z" transform="translate(0.233 0.287)"/>
  </g>
</svg>
