<svg xmlns="http://www.w3.org/2000/svg" viewBox="0 0 40 40">
  <defs>
    <style>
      .cls-1 {
        fill: #f12139;
      }
    </style>
  </defs>
  <g id="money" transform="translate(0 -3)">
    <g id="Group_29" data-name="Group 29" transform="translate(23.434 23.016)">
      <g id="Group_28" data-name="Group 28">
        <path id="Path_15" data-name="Path 15" class="cls-1" d="M303.235,261.905a1.519,1.519,0,1,1,1.719-1.505.781.781,0,1,0,1.563,0,3.135,3.135,0,0,0-2.5-3v-.411a.781.781,0,1,0-1.563,0v.411a3.135,3.135,0,0,0-2.5,3,3.192,3.192,0,0,0,3.281,3.086,1.519,1.519,0,1,1-1.719,1.505.781.781,0,1,0-1.562,0,3.135,3.135,0,0,0,2.5,3v.341a.781.781,0,1,0,1.563,0v-.341a3.135,3.135,0,0,0,2.5-3A3.192,3.192,0,0,0,303.235,261.905Z" transform="translate(-299.954 -256.201)"/>
      </g>
    </g>
    <g id="Group_31" data-name="Group 31" transform="translate(29.994 20.216)">
      <g id="Group_30" data-name="Group 30">
        <path id="Path_16" data-name="Path 16" class="cls-1" d="M389.2,224.586a10.22,10.22,0,0,0-4.158-3.723.777.777,0,0,0-1.043.37.8.8,0,0,0,.366,1.055,8.761,8.761,0,0,1,3.874,11.92.8.8,0,0,0,.323,1.069.771.771,0,0,0,.366.093.78.78,0,0,0,.69-.419,10.394,10.394,0,0,0-.418-10.364Z" transform="translate(-383.924 -220.785)"/>
      </g>
    </g>
    <g id="Group_33" data-name="Group 33" transform="translate(27.109 19.285)">
      <g id="Group_32" data-name="Group 32" transform="translate(0 0)">
        <path id="Path_17" data-name="Path 17" class="cls-1" d="M347.834,209h-.053a.791.791,0,0,0,0,1.581h.049a.791.791,0,0,0,0-1.581Z" transform="translate(-347 -209.001)"/>
      </g>
    </g>
    <g id="Group_35" data-name="Group 35" transform="translate(16.563 24.321)">
      <g id="Group_34" data-name="Group 34">
        <path id="Path_18" data-name="Path 18" class="cls-1" d="M218.44,285.793a8.761,8.761,0,0,1-3.874-11.92.8.8,0,0,0-.323-1.069.777.777,0,0,0-1.057.327,10.393,10.393,0,0,0,.418,10.364,10.22,10.22,0,0,0,4.158,3.724.771.771,0,0,0,.338.078.781.781,0,0,0,.7-.448A.8.8,0,0,0,218.44,285.793Z" transform="translate(-212.002 -272.711)"/>
      </g>
    </g>
    <g id="Group_37" data-name="Group 37" transform="translate(24.717 38.257)">
      <g id="Group_36" data-name="Group 36">
        <path id="Path_19" data-name="Path 19" class="cls-1" d="M317.208,449h-.045a.791.791,0,0,0-.007,1.581h.052a.791.791,0,0,0,0-1.581Z" transform="translate(-316.378 -448.999)"/>
      </g>
    </g>
    <g id="Group_39" data-name="Group 39" transform="translate(0 3)">
      <g id="Group_38" data-name="Group 38" transform="translate(0 0)">
        <path id="Path_20" data-name="Path 20" class="cls-1" d="M30.266,16.61a3.642,3.642,0,0,0-.347-.646h2.034a3.637,3.637,0,0,0,0-7.273H25.7A3.643,3.643,0,0,0,22.734,3H3.594a3.637,3.637,0,0,0,0,7.273H9.85a3.662,3.662,0,0,0,0,4.111H7.812a3.643,3.643,0,0,0-2.233,6.482,3.657,3.657,0,0,0,0,5.692,3.657,3.657,0,0,0,0,5.692,3.643,3.643,0,0,0,2.233,6.482h9.207A13.175,13.175,0,0,0,26.719,43a13.458,13.458,0,0,0,3.547-26.39Zm1.687-6.337a2.055,2.055,0,0,1,0,4.111H12.812a2.055,2.055,0,0,1,0-4.111ZM3.594,8.692a2.055,2.055,0,0,1,0-4.111H22.734a2.055,2.055,0,0,1,0,4.111Zm4.219,7.273H26.953a2.01,2.01,0,0,1,.886.206c-.37-.031-.743-.048-1.121-.048a13.163,13.163,0,0,0-9.4,3.952H7.812a2.055,2.055,0,0,1,0-4.111Zm0,5.692h8.173a13.465,13.465,0,0,0-2.008,4.111H7.812a2.055,2.055,0,0,1,0-4.111Zm0,5.692h5.806a13.607,13.607,0,0,0-.048,4.111H7.812a2.055,2.055,0,0,1,0-4.111Zm0,9.8a2.055,2.055,0,0,1,0-4.111H13.89a13.46,13.46,0,0,0,1.874,4.111Zm18.906,4.269A11.859,11.859,0,1,1,38.438,29.561,11.8,11.8,0,0,1,26.719,41.419Z" transform="translate(0 -3)"/>
      </g>
    </g>
  </g>
</svg>
