<svg xmlns="http://www.w3.org/2000/svg" viewBox="0 0 22.008 20">
  <g id="network_1_" data-name="network (1)" transform="translate(0 -10.354)">
    <path id="Path_117" data-name="Path 117" d="M21.741,15.87a2.235,2.235,0,0,0-4.148,1.561l-2.415,1.293a4.636,4.636,0,0,0-3.195-1.915V14.749a2.236,2.236,0,1,0-1.164,0v2.06a4.646,4.646,0,0,0-3.706,2.839l-2.643-.712a2.235,2.235,0,0,0-4.394-.582A2.236,2.236,0,0,0,1.655,21.1a2.248,2.248,0,0,0,.585.078A2.235,2.235,0,0,0,4.169,20.06l2.643.712a4.657,4.657,0,0,0-.045.634,4.61,4.61,0,0,0,.974,2.838L5.8,26.182a2.236,2.236,0,1,0,.823.823l1.938-1.938a4.62,4.62,0,0,0,5.676,0l1.938,1.938A2.236,2.236,0,1,0,17,26.182l-1.938-1.938a4.62,4.62,0,0,0,.667-4.5l2.413-1.292a2.221,2.221,0,0,0,.98.609,2.222,2.222,0,0,0,1.7-.169,2.236,2.236,0,0,0,.916-3.027Zm-1.465,2a1.073,1.073,0,1,1-.508-2.019,1.078,1.078,0,0,1,.312.046,1.073,1.073,0,0,1,.2,1.973Zm-5.4,3.535A3.471,3.471,0,1,1,11.4,17.935,3.475,3.475,0,0,1,14.873,21.407ZM10.329,12.59A1.073,1.073,0,1,1,11.4,13.663,1.074,1.074,0,0,1,10.329,12.59ZM1.958,19.973a1.073,1.073,0,1,1,1.315-.757A1.066,1.066,0,0,1,1.958,19.973Zm3.491,8.9a1.072,1.072,0,1,1,0-1.517,1.074,1.074,0,0,1,0,1.517ZM18.873,27.36a1.074,1.074,0,1,1-.759-.314A1.074,1.074,0,0,1,18.873,27.36Z"/>
  </g>
</svg>
