<svg xmlns="http://www.w3.org/2000/svg" viewBox="0 0 41 41">
  <defs>
    <style>
      .cls-1 {
        fill: #212121;
        stroke: #fff;
      }
    </style>
  </defs>
  <g id="round-help-button" transform="translate(0.5 0.5)">
    <g id="Group_40" data-name="Group 40">
      <path id="Path_21" data-name="Path 21" class="cls-1" d="M20,0A20,20,0,1,0,40,20,20.023,20.023,0,0,0,20,0Zm0,37.377A17.377,17.377,0,1,1,37.377,20,17.4,17.4,0,0,1,20,37.377Z"/>
      <path id="Path_22" data-name="Path 22" class="cls-1" d="M142.586,91.382a6.386,6.386,0,0,0-6.379,6.379,1.312,1.312,0,0,0,2.623,0,3.756,3.756,0,1,1,3.756,3.757,1.311,1.311,0,0,0-1.311,1.311V107.4a1.312,1.312,0,0,0,2.623,0V104a6.379,6.379,0,0,0-1.312-12.622Z" transform="translate(-122.586 -82.244)"/>
      <path id="Path_23" data-name="Path 23" class="cls-1" d="M185.186,273.738a1.646,1.646,0,1,0,1.646,1.646A1.647,1.647,0,0,0,185.186,273.738Z" transform="translate(-165.185 -246.364)"/>
    </g>
  </g>
</svg>
