<svg xmlns="http://www.w3.org/2000/svg" viewBox="0 0 23.94 20">
  <g id="users" transform="translate(0 -42.135)">
    <g id="Group_188" data-name="Group 188" transform="translate(0 42.135)">
      <g id="Group_187" data-name="Group 187" transform="translate(0 0)">
        <path id="Path_115" data-name="Path 115" d="M12.669,54.33a2.748,2.748,0,0,0-2.137-1.158.493.493,0,0,0-.055,0,2.115,2.115,0,0,1-2.1-1.867,3.983,3.983,0,0,0,.854-.859,5.416,5.416,0,0,0,.973-2.511.5.5,0,0,0,.093-.144,4.232,4.232,0,0,0,.329-1.648,3.875,3.875,0,0,0-3.721-4,3.461,3.461,0,0,0-1.532.358,2.739,2.739,0,0,0-.531.1c-1.715.5-2.685,2.57-2.161,4.623a4.582,4.582,0,0,0,.2.6.5.5,0,0,0,.088.14A4.912,4.912,0,0,0,4.792,51.3a2.115,2.115,0,0,1-2.1,1.87l-.049,0A2.745,2.745,0,0,0,0,55.911v2.952a.5.5,0,0,0,.5.5H9.31a.5.5,0,0,0,0-1H1V55.911a1.747,1.747,0,0,1,1.745-1.745l.049,0a3.09,3.09,0,0,0,1.022-.207l2.361,3.408a.5.5,0,0,0,.82,0l2.361-3.408a3.09,3.09,0,0,0,1.022.207l.049,0a1.75,1.75,0,0,1,1.427.739.5.5,0,0,0,.815-.576ZM5.12,43.549a1.772,1.772,0,0,1,.411-.067.5.5,0,0,0,.21-.057,2.486,2.486,0,0,1,1.166-.293,2.868,2.868,0,0,1,2.722,2.907,1.78,1.78,0,0,0-1.077-.362H5.943a.6.6,0,0,1-.554-.374.585.585,0,0,0-1.109.073,3.428,3.428,0,0,1-.688,1.331A2.668,2.668,0,0,1,5.12,43.549ZM3.95,47.773a4.455,4.455,0,0,0,1.034-1.418l.005,0a1.582,1.582,0,0,0,.953.316H8.551a.792.792,0,0,1,.712.448,4.629,4.629,0,0,1-.833,2.727,2.329,2.329,0,0,1-1.845,1.057,2.28,2.28,0,0,1-1.741-.924A4.362,4.362,0,0,1,3.95,47.773ZM6.585,56.2,4.677,53.45A3.114,3.114,0,0,0,5.72,51.771a2.9,2.9,0,0,0,1.731,0A3.114,3.114,0,0,0,8.494,53.45Z" transform="translate(0 -42.135)"/>
      </g>
    </g>
    <g id="Group_190" data-name="Group 190" transform="translate(10.769 44.187)">
      <g id="Group_189" data-name="Group 189" transform="translate(0 0)">
        <path id="Path_116" data-name="Path 116" d="M240.846,97.782l-.049,0a2.115,2.115,0,0,1-2.1-1.871,4.432,4.432,0,0,0,1.446-1.923.5.5,0,0,0,.87.161,5.25,5.25,0,0,0-.165-6.434,3.68,3.68,0,0,0-2.759-1.352c-.055,0-.192,0-.214,0a3.736,3.736,0,0,0-1.677-.336,4.064,4.064,0,0,0-3.1,1.682,6.074,6.074,0,0,0-1.085,4.393,6.02,6.02,0,0,0,.485,1.688.5.5,0,0,0,.879.053c.04-.066.092-.147.149-.228a4.942,4.942,0,0,0,.994,1.761,3.786,3.786,0,0,0,.592.534,2.115,2.115,0,0,1-2.1,1.869l-.049,0a2.746,2.746,0,0,0-2.645,2.74v2.952a.5.5,0,0,0,.5.5h12.173a.5.5,0,0,0,.5-.5v-2.952A2.746,2.746,0,0,0,240.846,97.782Zm-7.731-5.229a5.269,5.269,0,0,1-.115-.59,4.883,4.883,0,0,1-.047-.552,4.824,4.824,0,0,1,.935-3.094,3.086,3.086,0,0,1,2.344-1.292,2.854,2.854,0,0,1,1.329.294.507.507,0,0,0,.24.052l.273-.012a2.7,2.7,0,0,1,2.02,1.005,4.09,4.09,0,0,1,.942,2.54,4.341,4.341,0,0,1-.214,1.507q-.071-.188-.158-.371a4.45,4.45,0,0,0-2.282-2.234.5.5,0,0,0-.661.287,3.69,3.69,0,0,1-.239.519,1.487,1.487,0,0,1-1.373.724c-.088,0-.177,0-.265,0a3.938,3.938,0,0,0-1.252.245A4.4,4.4,0,0,0,233.116,92.553Zm1.227.271a2.871,2.871,0,0,1,1.535-.493c.066,0,.133,0,.2,0a2.478,2.478,0,0,0,2.278-1.234q.041-.073.08-.149A3.47,3.47,0,0,1,239.57,92.1c0,.015,0,.03-.006.045a4.443,4.443,0,0,1-.919,2.445,2.28,2.28,0,0,1-1.741.924C235.729,95.518,234.685,94.4,234.343,92.824Zm1.7,3.557a2.862,2.862,0,0,0,1.731,0,3.12,3.12,0,0,0,1.488,1.987,2.442,2.442,0,0,1-4.706,0A3.12,3.12,0,0,0,236.04,96.381Zm6.453,6.6H231.318v-2.454a1.748,1.748,0,0,1,1.746-1.745l.049,0a3.111,3.111,0,0,0,.5-.057,3.439,3.439,0,0,0,6.579,0,3.1,3.1,0,0,0,.5.056l.049,0a1.747,1.747,0,0,1,1.745,1.745Z" transform="translate(-230.32 -86.026)"/>
      </g>
    </g>
  </g>
</svg>
