<svg xmlns="http://www.w3.org/2000/svg" viewBox="0 0 21.972 17.321">
  <g id="wallet" transform="translate(0 -44.2)">
    <g id="Group_186" data-name="Group 186" transform="translate(0 44.2)">
      <g id="Group_185" data-name="Group 185" transform="translate(0 0)">
        <path id="Path_113" data-name="Path 113" d="M21.551,50.009a1.521,1.521,0,0,0-1.031-.421h.063V47.42a3.234,3.234,0,0,0-3.22-3.22H3.22A3.234,3.234,0,0,0,0,47.42V58.3a3.234,3.234,0,0,0,3.22,3.22H17.363a3.234,3.234,0,0,0,3.22-3.22V56.112H20.52a1.521,1.521,0,0,0,1.031-.421,1.482,1.482,0,0,0,.421-1.031V51.04A1.521,1.521,0,0,0,21.551,50.009ZM19.426,58.28a2.084,2.084,0,0,1-2.063,2.063H3.22A2.084,2.084,0,0,1,1.158,58.28V47.42A2.084,2.084,0,0,1,3.22,45.358H17.363a2.084,2.084,0,0,1,2.063,2.063v2.168H12.9a3.218,3.218,0,0,0-2.252.926,3.181,3.181,0,0,0-.926,2.252v.147a3.218,3.218,0,0,0,.926,2.252,3.181,3.181,0,0,0,2.252.926h6.524Zm1.389-3.62h0a.322.322,0,0,1-.084.21.27.27,0,0,1-.21.084H12.9a2.012,2.012,0,0,1-2.02-2.02v-.147a2.012,2.012,0,0,1,2.02-2.02H20.52a.322.322,0,0,1,.21.084.27.27,0,0,1,.084.21Z" transform="translate(0 -44.2)"/>
        <path id="Path_114" data-name="Path 114" d="M231.326,190.6a.926.926,0,0,0,0,1.852,1.014,1.014,0,0,0,.673-.274.936.936,0,0,0,.274-.673,1.014,1.014,0,0,0-.274-.673A1.234,1.234,0,0,0,231.326,190.6Z" transform="translate(-218.277 -182.897)"/>
      </g>
    </g>
  </g>
</svg>
