<svg xmlns="http://www.w3.org/2000/svg" viewBox="0 0 19.69 18">
  <g id="warning" transform="translate(0 -20.882)">
    <g id="Group_289" data-name="Group 289" transform="translate(0 20.882)">
      <path id="Path_143" data-name="Path 143" d="M219.237,333.382a1.012,1.012,0,1,0,0,2.024,1.012,1.012,0,0,0,0-2.024Z" transform="translate(-209.392 -320.733)"/>
      <path id="Path_144" data-name="Path 144" d="M19.211,37.117a3.455,3.455,0,0,0,.008-3.5L12.88,22.643a3.492,3.492,0,0,0-6.063,0L.47,33.628a3.506,3.506,0,0,0,3.036,5.254H16.167A3.486,3.486,0,0,0,19.211,37.117Zm-1.376-.793a1.913,1.913,0,0,1-1.672.967H3.5a1.887,1.887,0,0,1-1.651-.947,1.915,1.915,0,0,1,0-1.931L8.193,23.428a1.906,1.906,0,0,1,3.311,0l6.343,10.985A1.89,1.89,0,0,1,17.835,36.324Z" transform="translate(0 -20.882)"/>
      <path id="Path_145" data-name="Path 145" d="M218.506,157.2a1.1,1.1,0,0,0-.781,1.105c.024.32.045.644.069.963.069,1.218.138,2.412.206,3.631a.742.742,0,0,0,.757.712.757.757,0,0,0,.757-.737c0-.251,0-.482.024-.737.045-.781.093-1.562.138-2.344.024-.506.069-1.012.093-1.518a1.25,1.25,0,0,0-.093-.506A1.015,1.015,0,0,0,218.506,157.2Z" transform="translate(-208.912 -151.659)"/>
    </g>
  </g>
</svg>
